<svg xmlns="http://www.w3.org/2000/svg" version="1.1" viewBox="-5.0 -10.0 110.0 135.0">
  <path d="m50 68.004c-6.6172 0-12 5.3828-12 11.996s5.3828 11.996 12 11.996 12-5.3828 12-11.996-5.3828-11.996-12-11.996zm0 17.992c-3.3086 0-6-2.6914-6-5.9961s2.6914-5.9961 6-5.9961 6 2.6875 6 5.9961-2.6914 5.9961-6 5.9961z"/>
  <path d="m50 37.996c-6.6172 0-12 5.3828-12 12.004s5.3828 12.004 12 12.004 12-5.3828 12-12.004c0-6.6172-5.3828-12.004-12-12.004zm0 18.008c-3.3086 0-6-2.6953-6-6.0039s2.6914-6.0039 6-6.0039 6 2.6953 6 6.0039c0 3.3125-2.6914 6.0039-6 6.0039z"/>
  <path d="m50 8.0039c-6.6172 0-12 5.3828-12 11.996s5.3828 11.996 12 11.996 12-5.3828 12-11.996-5.3828-11.996-12-11.996zm0 17.992c-3.3086 0-6-2.6914-6-5.9961s2.6914-5.9961 6-5.9961 6 2.6875 6 5.9961-2.6914 5.9961-6 5.9961z"/>
</svg>